# xmcd
#
# Track frame offsets: 
#        150
#        11812
#        27769
#        46175
#        62555
#        81535
#        100039
#        114301
#        132817
#        152831
#        163016
#        179346
#        201159
#        222484
#
# Disc length: 3181 seconds
#
# Revision: 0
# Processed by: cddbd v1.5.2PL0 Copyright (c) Steve Scherf et al.
# Submitted via: ExactAudioCopy v0.99pb4
#
DISCID=ba0c6b0e
DTITLE=Andre. S - Undeniable
DYEAR=2005
DGENRE=R&B
TTITLE0=Intro: Coming to the Stage
TTITLE1=Ayo
TTITLE2=Just to Get By
TTITLE3=Serenity
TTITLE4=Is It You
TTITLE5=Matrix Ride
TTITLE6=Something So Sweet
TTITLE7=Everybody Get Up
TTITLE8=No Other Love
TTITLE9=Every Time I Close My Eyes
TTITLE10=Three Strikes
TTITLE11=Mama Said
TTITLE12=E'Funk
TTITLE13=I'll Praise Your Name
EXTD=
EXTT0=
EXTT1=
EXTT2=
EXTT3=
EXTT4=
EXTT5=
EXTT6=
EXTT7=
EXTT8=
EXTT9=
EXTT10=
EXTT11=
EXTT12=
EXTT13=
PLAYORDER=
